# AST/ASF file generated using VICON BodyLanguage
# -----------------------------------------------
:version 1.10
:name VICON
:units
  mass 1.0
  length 0.45
  angle deg
:documentation
   .ast/.asf automatically generated from VICON data using
   VICON BodyBuilder and BodyLanguage model FoxedUp or BRILLIANT.MOD
:root
   order TX TY TZ RX RY RZ
   axis XYZ
   position 0 0 0  
   orientation 0 0 0 
:bonedata
  begin
     id 1 
     name lhipjoint
     direction 0.573633 -0.743009 0.344793 
     length 2.46257 
     axis 0 0 0  XYZ
  end
  begin
     id 2 
     name lfemur
     direction 0.34202 -0.939693 0  
     length 7.3842  
     axis 0 0 20  XYZ
    dof rx ry rz
    limits (-160.0 20.0)
           (-70.0 70.0)
           (-60.0 70.0)
  end
  begin
     id 3 
     name ltibia
     direction 0.34202 -0.939693 0   
     length 7.50407   
     axis 0 0 20   XYZ
    dof rx
    limits (-10.0 170.0)
  end
  begin
     id 4 
     name lfoot
     direction 0.110749 -0.304281 0.946123   
     length 1.95925   
     axis -90 7.62852e-016 20   XYZ
    dof rx rz
    limits (-45.0 90.0)
           (-70.0 20.0)
  end
  begin
     id 5 
     name ltoes
     direction 1.53554e-011 -4.21843e-011 1   
     length 0.978318   
     axis -90 7.62852e-016 20   XYZ
    dof rx
    limits (-90.0 20.0)
  end
  begin
     id 6 
     name rhipjoint
     direction -0.488109 -0.791693 0.367385   
     length 2.31113  
     axis 0 0 0  XYZ 
  end
  begin
     id 7 
     name rfemur
     direction -0.34202 -0.939693 0   
     length 7.40965   
     axis 0 0 -20   XYZ
    dof rx ry rz
    limits (-160.0 20.0)
           (-70.0 70.0)
           (-70.0 60.0)
  end
  begin
     id 8 
     name rtibia
     direction -0.34202 -0.939693 0   
     length 7.55548   
     axis 0 0 -20   XYZ
    dof rx
    limits (-10.0 170.0)
 end
 begin
     id 9 
     name rfoot
     direction -0.127594 -0.350561 0.927808   
     length 2.07199  
     axis -90 -7.62852e-016 -20   XYZ
    dof rx rz
    limits (-45.0 90.0)
           (-20.0 70.0)
  end
  begin
     id 10 
     name rtoes
     direction -1.53542e-011 -4.21909e-011 1   
     length 1.02667   
     axis -90 -7.62852e-016 -20   XYZ
    dof rx
    limits (-90.0 20.0)
  end
  begin
     id 11 
     name lowerback
     direction -0.0103342 0.997298 -0.0727278   
     length 2.02836   
     axis 0 0 0   XYZ
    dof rx ry rz
    limits (-20.0 45.0)
           (-30.0 30.0)
           (-30.0 30.0)
  end
  begin
     id 12 
     name upperback
     direction 0.0171146 0.999786 -0.011606   
     length 2.03179   
     axis 0 0 0   XYZ
    dof rx ry rz
    limits (-20.0 45.0)
           (-30.0 30.0)
           (-30.0 30.0)
  end
  begin
     id 13 
     name thorax
     direction 0.0216927 0.999513 0.0224343   
     length 2.03882   
     axis 0 0 0   XYZ
    dof rx ry rz
    limits (-20.0 45.0)
           (-30.0 30.0)
           (-30.0 30.0)
  end
  begin
     id 14 
     name lowerneck
     direction 0.000989287 0.993907 0.110221   
     length 1.75428   
     axis 0 0 0   XYZ
    dof rx ry rz
    limits (-20.0 45.0)
           (-30.0 30.0)
           (-30.0 30.0)
  end
  begin
     id 15 
     name upperneck
     direction -0.0172474 0.994813 -0.100253   
     length 1.77058   
     axis 0 0 0   XYZ
    dof rx ry rz
    limits (-20.0 45.0)
           (-30.0 30.0)
           (-30.0 30.0)
  end
  begin
     id 16
     name head
     direction -0.00486455 0.99894 -0.0457663  
     length 1.77427  
     axis 0 0 0   XYZ
    dof rx ry rz
    limits (-20.0 45.0)
           (-30.0 30.0)
           (-30.0 30.0)
  end
  begin
     id 17 
     name lclavicle
     direction 0.927314 0.333734 -0.169441  
     length 3.97584  
     axis 0 0 0   XYZ
    dof ry rz
    limits (-20.0 10.0)
           (0.0 20.0)
  end
  begin
     id 18 
     name lhumerus
     direction 1 -4.48965e-011 -3.25313e-028   
     length 4.76468   
     axis 180 -30 -90   XYZ
    dof rx ry rz
    limits (-60.0 90.0)
           (-90.0 90.0)
           (-90.0 90.0)
  end
  begin
     id 19
     name lradius
     direction 1 -4.48969e-011 -2.8465e-028   
     length 3.52712   
     axis -180 -30 -90   XYZ
    dof rx
    limits (-10.0 170.0)
  end
  begin
     id 20
     name lwrist
     direction 1 -4.4896e-011 -7.78665e-028   
     length 1.76356   
     axis 1.91374e-015 90 90   XYZ
    dof ry
    limits (-180.0 0.0)
 end
  begin
     id 21 
     name lhand
     direction 1 -4.48959e-011 -1.55733e-027   
     length 0.859564   
     axis 9.9371e-016 90 90   XYZ
    dof rx rz
    limits (-90.0 90.0)
           (-45.0 45.0)
  end
  begin
     id 22 
     name lfingers
     direction 1 -4.48965e-011 -3.11466e-027   
     length 0.693002   
     axis 1.98742e-015 90 90   XYZ
    dof rx
    limits (0.0 90.0)
  end
  begin
     id 23
     name lthumb
     direction 0.707107 -6.34948e-011 0.707107   
     length 0.995017   
     axis -90 45 2.85299e-015   XYZ
    dof rx rz
    limits (-45.0 45.0)
           (-45.0 45.0)
  end
  begin
     id 24 
     name rclavicle
     direction -0.899388 0.348209 -0.264294   
     length 3.68366  
     axis 0 0 0   XYZ 
    dof ry rz
    limits (-10.0 20.0)
           (-20.0 0.0)
  end
  begin
     id 25 
     name rhumerus
     direction -1 -4.48965e-011 -3.01536e-027  
     length 4.90577   
     axis 180 30 90   XYZ
    dof rx ry rz
    limits (-90.0 60.0)
           (-90.0 90.0)
           (-90.0 90.0)
  end
  begin
     id 26 
     name rradius
     direction -1 -4.48966e-011 3.93291e-027   
     length 3.42692   
     axis -180 30 90   XYZ
    dof rx
    limits (-10.0 170.0)
  end
  begin
     id 27 
     name rwrist
     direction -1 -4.48969e-011 -7.78665e-028   
     length 1.71346   
     axis 1.91374e-015 -90 -90   XYZ
    dof ry
    limits (-180.0 0.0)
  end
  begin
     id 28
     name rhand
     direction -1 -4.48967e-011 -1.55733e-027   
     length 0.740957   
     axis 9.9371e-016 -90 -90   XYZ
    dof rx rz
    limits (-90.0 90.0)
           (-45.0 45.0)
  end
  begin
     id 29
     name rfingers
     direction -1 -4.48949e-011 -3.11466e-027   
     length 0.597378   
     axis 1.98742e-015 -90 -90   XYZ
    dof rx
    limits (0.0 90.0)
  end
  begin
     id 30
     name rthumb
     direction -0.707107 -6.34931e-011 0.707107   
     length 0.857719   
     axis -90 -45 -2.85299e-015   XYZ
    dof rx rz
    limits (-45.0 45.0)
           (-45.0 45.0)
  end
:hierarchy
  begin
    root lhipjoint rhipjoint lowerback
    lhipjoint lfemur
    lfemur ltibia
    ltibia lfoot
    lfoot ltoes
    rhipjoint rfemur
    rfemur rtibia
    rtibia rfoot
    rfoot rtoes
    lowerback upperback
    upperback thorax
    thorax lowerneck lclavicle rclavicle
    lowerneck upperneck
    upperneck head
    lclavicle lhumerus
    lhumerus lradius
    lradius lwrist
    lwrist lhand lthumb
    lhand lfingers
    rclavicle rhumerus
    rhumerus rradius
    rradius rwrist
    rwrist rhand rthumb
    rhand rfingers
  end

#!OML:ASF E:\I on waltz\AllaLogoMonkeySwing\Project 1\Capture day 1\Session 1\Subject1.ASF
:FULLY-SPECIFIED
:DEGREES
337
root 1.624 17.8525 4.90606 -1.16884 -1.5197 -1.79175
lowerback 7.55772 0.881983 -0.0694372
upperback -1.39777 1.26749 1.73144
thorax -5.7423 0.658314 1.68647
lowerneck -14.1468 2.46241 1.19304
upperneck 11.3821 3.50961 -2.9506
head 5.83526 1.52991 -0.808115
rclavicle -6.07536e-015 5.76476e-015
rhumerus -32.2727 -17.7827 -78.2531
rradius 29.8251
rwrist 0.0378281
rhand -6.47245 -36.4359
rfingers 7.12502
rthumb 19.3781 -65.4904
lclavicle -6.07536e-015 5.76476e-015
lhumerus -39.3845 19.7796 79.3826
lradius 33.5115
lwrist -7.16734
lhand -6.28258 -13.2333
lfingers 7.12502
lthumb 19.5607 15.8027
rfemur 0.00699031 0.734288 21.4417
rtibia 16.8142
rfoot -14.114 -9.74631
rtoes 21.0407
lfemur 2.89371 -0.455037 -18.0195
ltibia 11.9134
lfoot -14.3007 3.35492
ltoes -26.5857
338
root 1.61916 17.8526 4.93589 -1.06613 -1.5097 -1.86738
lowerback 7.14049 0.902801 -0.0923537
upperback -1.49155 1.29113 1.73456
thorax -5.60471 0.671054 1.70446
lowerneck -14.3514 2.43551 1.18929
upperneck 12.081 3.46279 -2.74193
head 6.0859 1.51464 -0.740676
rclavicle -4.57205e-015 1.53064e-014
rhumerus -32.2048 -18.3425 -78.0536
rradius 28.9801
rwrist 0.730535
rhand -6.4213 -36.5743
rfingers 7.12502
rthumb 19.4273 -65.6238
lclavicle -4.57205e-015 1.53064e-014
lhumerus -39.6355 20.8101 78.6729
lradius 32.4493
lwrist -8.25294
lhand -5.97699 -12.5037
lfingers 7.12502
lthumb 19.8545 16.5021
rfemur 0.0371168 0.699541 21.5297
rtibia 16.7492
rfoot -14.2325 -9.69572
rtoes 21.2798
lfemur 2.9437 -0.463108 -17.9192
ltibia 11.8235
lfoot -14.3229 3.3775
ltoes -26.9082
339
root 1.61408 17.8506 4.9638 -0.977059 -1.52244 -2.01902
lowerback 6.80361 0.92267 -0.0395162
upperback -1.60161 1.32208 1.75136
thorax -5.52867 0.685348 1.69245
lowerneck -14.6182 2.38262 1.15811
upperneck 12.9101 3.37468 -2.45551
head 6.38747 1.48402 -0.646574
rclavicle -4.52856e-015 1.2921e-014
rhumerus -32.2585 -18.8216 -77.868
rradius 28.252
rwrist 1.44452
rhand -6.20262 -36.7516
rfingers 7.12502
rthumb 19.6376 -65.7797
lclavicle -4.52856e-015 1.2921e-014
lhumerus -39.9619 21.5053 78.077
lradius 31.6395
lwrist -9.11808
lhand -5.66528 -11.6636
lfingers 7.12502
lthumb 20.1541 17.311
rfemur 0.0834974 0.693529 21.7104
rtibia 16.6717
rfoot -14.2876 -9.66546
rtoes 21.3531
lfemur 3.01233 -0.491575 -17.7418
ltibia 11.7463
lfoot -14.3752 3.47951
ltoes -27.1963
340
root 1.60918 17.8474 4.99142 -0.953671 -1.51795 -2.09029
lowerback 6.52023 0.939993 -0.0447809
upperback -1.66838 1.34175 1.7245
thorax -5.43739 0.694962 1.66864
lowerneck -14.7745 2.33436 1.12058
upperneck 13.5781 3.28018 -2.12907
head 6.61974 1.45751 -0.540756
rclavicle 2.65005e-014 1.05356e-014
rhumerus -32.3262 -19.3009 -77.7186
rradius 27.5567
rwrist 2.09869
rhand -5.91175 -36.9097
rfingers 7.12502
rthumb 19.9172 -65.9091
lclavicle 2.65005e-014 1.05356e-014
lhumerus -40.4254 22.3621 77.3701
lradius 31.1248
lwrist -10.1114
lhand -5.2056 -11.4976
lfingers 7.12502
lthumb 20.5959 17.4297
rfemur 0.201195 0.726973 21.8124
rtibia 16.6064
rfoot -14.3532 -9.71003
rtoes 21.1977
lfemur 3.15571 -0.59002 -17.6707
ltibia 11.6675
lfoot -14.4146 3.64255
ltoes -27.4957
341
root 1.60404 17.8472 5.01842 -0.92988 -1.45469 -2.05607
lowerback 6.2303 0.953781 -0.154646
upperback -1.70027 1.34636 1.67445
thorax -5.30721 0.699876 1.68163
lowerneck -14.804 2.31701 1.10601
upperneck 14.009 3.22907 -1.8872
head 6.75804 1.44986 -0.463491
rclavicle 8.23093e-015 9.93923e-015
rhumerus -32.4277 -19.8012 -77.5592
rradius 26.9456
rwrist 2.82464
rhand -5.73845 -37.1094
rfingers 7.12502
rthumb 20.0838 -66.0914
lclavicle 8.23093e-015 9.93923e-015
lhumerus -40.9765 23.3051 76.6818
lradius 30.9296
lwrist -11.1235
lhand -4.72269 -11.7124
lfingers 7.12502
lthumb 21.0598 17.164
rfemur 0.291714 0.768569 21.8026
rtibia 16.597
rfoot -14.4646 -9.79492
rtoes 21.1817
lfemur 3.29676 -0.695035 -17.7165
ltibia 11.5396
lfoot -14.422 3.7271
ltoes -27.666
342
root 1.59698 17.8468 5.04128 -0.875294 -1.37985 -1.90832
lowerback 5.99276 0.974153 -0.416319
upperback -1.74562 1.34841 1.61227
thorax -5.22426 0.708349 1.76698
lowerneck -14.8928 2.27778 1.09911
upperneck 14.4035 3.15878 -1.73352
head 6.89676 1.42602 -0.417181
rclavicle -3.13272e-014 2.127e-014
rhumerus -32.6392 -20.2026 -77.3965
rradius 26.4461
rwrist 3.55032
rhand -5.74504 -37.1284
rfingers 7.12502
rthumb 20.0774 -66.1111
lclavicle -3.13272e-014 2.127e-014
lhumerus -41.3891 23.7157 76.3238
lradius 30.7734
lwrist -11.5467
lhand -4.48504 -11.7123
lfingers 7.12502
lthumb 21.2881 17.1385
rfemur 0.307301 0.847573 21.6859
rtibia 16.6361
rfoot -14.5462 -9.95569
rtoes 21.2295
lfemur 3.39355 -0.695045 -17.8673
ltibia 11.3593
lfoot -14.3979 3.70545
ltoes -27.888
343
root 1.58974 17.8461 5.06161 -0.806445 -1.31875 -1.77314
lowerback 5.78451 0.987372 -0.656109
upperback -1.78649 1.34353 1.54061
thorax -5.1523 0.712418 1.83057
lowerneck -14.957 2.20026 1.18877
upperneck 14.7012 3.03196 -1.69479
head 7.00312 1.37129 -0.430371
rclavicle -1.04859e-014 8.15017e-015
rhumerus -32.8632 -20.483 -77.2966
rradius 25.997
rwrist 3.9704
rhand -5.94727 -36.9183
rfingers 7.12502
rthumb 19.883 -65.9212
lclavicle -1.04859e-014 8.15017e-015
lhumerus -41.6683 23.7407 76.1577
lradius 30.602
lwrist -11.5739
lhand -4.40123 -11.7623
lfingers 7.12502
lthumb 21.3686 17.0795
rfemur 0.288286 0.965455 21.5866
rtibia 16.6771
rfoot -14.6276 -10.1196
rtoes 21.3737
lfemur 3.44234 -0.660767 -17.992
ltibia 11.2247
lfoot -14.3939 3.64761
ltoes -28.0077
344
root 1.58435 17.8467 5.08137 -0.718985 -1.22543 -1.7276
lowerback 5.59587 0.984448 -0.758002
upperback -1.83199 1.32936 1.48256
thorax -5.09296 0.707713 1.83143
lowerneck -14.9135 2.12849 1.2571
upperneck 14.8742 2.90718 -1.60806
head 7.04949 1.32249 -0.426129
rclavicle 5.31128e-015 -4.57205e-015
rhumerus -33.1238 -20.8529 -77.1556
rradius 25.5961
rwrist 4.30307
rhand -6.11807 -36.8342
rfingers 7.12502
rthumb 19.7189 -65.854
lclavicle 5.31128e-015 -4.57205e-015
lhumerus -41.9256 23.6227 76.0833
lradius 30.5374
lwrist -11.359
lhand -4.38213 -11.9077
lfingers 7.12502
lthumb 21.387 16.9319
rfemur 0.238506 0.994104 21.5602
rtibia 16.7258
rfoot -14.7635 -10.1687
rtoes 21.5126
lfemur 3.43378 -0.715405 -18.0252
ltibia 11.1605
lfoot -14.4312 3.63472
ltoes -28.0003
345
root 1.57699 17.8461 5.10034 -0.642812 -1.06604 -1.84646
lowerback 5.44623 0.970474 -0.711018
upperback -1.86742 1.31509 1.49302
thorax -5.04346 0.699355 1.81923
lowerneck -14.9408 2.08347 1.14787
upperneck 15.0941 2.83231 -1.37438
head 7.11928 1.30043 -0.339125
rclavicle -1.39025e-014 -1.63003e-014
rhumerus -33.4577 -21.2554 -76.9437
rradius 25.2738
rwrist 4.69797
rhand -6.17397 -36.9429
rfingers 7.12502
rthumb 19.6651 -65.9682
lclavicle -1.39025e-014 -1.63003e-014
lhumerus -42.1325 23.3744 76.1711
lradius 30.563
lwrist -10.9488
lhand -4.50443 -11.9459
lfingers 7.12502
lthumb 21.2695 16.907
rfemur 0.209573 0.956404 21.7288
rtibia 16.7806
rfoot -14.9102 -10.2767
rtoes 21.2167
lfemur 3.40466 -0.811791 -17.8613
ltibia 11.1402
lfoot -14.5039 3.60566
ltoes -28.0308
346
root 1.56956 17.8444 5.1178 -0.627858 -0.87778 -1.98232
lowerback 5.31538 0.942538 -0.643273
upperback -1.83619 1.28302 1.5084
thorax -4.93398 0.680866 1.80225
lowerneck -15.0655 2.04672 0.97737
upperneck 15.3308 2.77786 -1.12163
head 7.21092 1.28593 -0.232542
rclavicle -1.09766e-014 -1.54058e-014
rhumerus -33.7477 -21.543 -76.8073
rradius 25.0382
rwrist 4.9632
rhand -6.27909 -37.0049
rfingers 7.12502
rthumb 19.564 -66.0406
lclavicle -1.09766e-014 -1.54058e-014
lhumerus -42.229 23.0534 76.3675
lradius 30.6274
lwrist -10.4814
lhand -4.72056 -12.0176
lfingers 7.12502
lthumb 21.0619 16.8586
rfemur 0.263735 0.879333 21.9197
rtibia 16.8023
rfoot -15.0139 -10.4115
rtoes 20.9572
lfemur 3.39021 -0.803815 -17.6568
ltibia 11.201
lfoot -14.6301 3.43918
ltoes -27.9357
347
root 1.56552 17.8412 5.13304 -0.651655 -0.740255 -1.94421
lowerback 5.21657 0.938838 -0.704733
upperback -1.7515 1.27004 1.45167
thorax -4.78897 0.674104 1.78098
lowerneck -15.201 1.95846 0.872002
upperneck 15.4399 2.65011 -0.948023
head 7.26459 1.2335 -0.170524
rclavicle 2.83951e-014 2.23633e-014
rhumerus -33.9743 -21.8168 -76.7439
rradius 24.8534
rwrist 5.16546
rhand -6.32102 -36.9783
rfingers 7.12502
rthumb 19.5237 -66.0181
lclavicle 2.83951e-014 2.23633e-014
lhumerus -42.1877 22.7799 76.5667
lradius 30.6528
lwrist -10.0803
lhand -4.92843 -12.0938
lfingers 7.12502
lthumb 20.8622 16.8045
rfemur 0.362729 0.729128 21.8807
rtibia 16.7911
rfoot -15.0704 -10.405
rtoes 21.2493
lfemur 3.38495 -0.799532 -17.6731
ltibia 11.3394
lfoot -14.7571 3.32922
ltoes -27.896
348
root 1.56099 17.8374 5.14928 -0.691342 -0.698269 -1.96055
lowerback 5.16013 0.982553 -0.72414
upperback -1.66693 1.32468 1.41782
thorax -4.67043 0.70008 1.75299
lowerneck -15.1897 1.85353 0.846422
upperneck 15.3749 2.50356 -0.90313
head 7.23908 1.16629 -0.167768
rclavicle -5.03174e-016 -1.5207e-014
rhumerus -34.1871 -22.0925 -76.6415
rradius 24.5687
rwrist 5.46634
rhand -6.2609 -36.8574
rfingers 7.12502
rthumb 19.5815 -65.8913
lclavicle -5.03174e-016 -1.5207e-014
lhumerus -42.1391 22.6303 76.7224
lradius 30.6694
lwrist -9.86329
lhand -5.10511 -12.1931
lfingers 7.12502
lthumb 20.6924 16.7238
rfemur 0.474621 0.714436 21.9161
rtibia 16.7869
rfoot -15.1176 -10.4435
rtoes 21.6522
lfemur 3.41683 -0.875273 -17.6521
ltibia 11.4766
lfoot -14.8467 3.38311
ltoes -27.8922
349
root 1.5566 17.8348 5.16697 -0.752401 -0.717102 -2.02878
lowerback 5.12501 1.03554 -0.700585
upperback -1.59298 1.39638 1.41859
thorax -4.5756 0.734035 1.73499
lowerneck -14.9296 1.84691 0.78315
upperneck 15.1282 2.49262 -0.820206
head 7.11158 1.16717 -0.135233
rclavicle 2.01549e-014 1.32192e-014
rhumerus -34.3854 -22.3093 -76.4964
rradius 24.1566
rwrist 5.85299
rhand -6.12043 -36.7316
rfingers 7.12502
rthumb 19.7166 -65.7517
lclavicle 2.01549e-014 1.32192e-014
lhumerus -42.1397 22.4674 76.9026
lradius 30.7313
lwrist -9.56366
lhand -5.23485 -12.4437
lfingers 7.12502
lthumb 20.5678 16.4867
rfemur 0.60848 0.813964 22.0229
rtibia 16.7787
rfoot -15.1734 -10.5368
rtoes 21.6988
lfemur 3.4785 -0.910429 -17.575
ltibia 11.6151
lfoot -14.9157 3.46446
ltoes -27.6668
350
root 1.5534 17.8323 5.18227 -0.803314 -0.727414 -2.04776
lowerback 5.06948 1.06797 -0.729938
upperback -1.51484 1.43692 1.41883
thorax -4.46506 0.753937 1.74953
lowerneck -15.053 1.76192 0.895938
upperneck 15.2993 2.39454 -1.05277
head 7.19237 1.10399 -0.237679
rclavicle -1.05573e-014 3.67752e-015
rhumerus -34.5622 -22.4409 -76.3883
rradius 23.7509
rwrist 6.24727
rhand -6.03323 -36.7436
rfingers 7.12502
rthumb 19.8004 -65.755
lclavicle -1.05573e-014 3.67752e-015
lhumerus -42.1071 22.4 77.0552
lradius 30.7447
lwrist -9.24184
lhand -5.3134 -12.7605
lfingers 7.12502
lthumb 20.4923 16.178
rfemur 0.733184 0.831934 22.0622
rtibia 16.7427
rfoot -15.1859 -10.5895
rtoes 21.4408
lfemur 3.51523 -0.926402 -17.5553
ltibia 11.7706
lfoot -14.9514 3.53115
ltoes -27.4904
